<svg id="Layer_1" data-name="Layer 1" xmlns="http://www.w3.org/2000/svg" xmlns:xlink="http://www.w3.org/1999/xlink" viewBox="0 0 2902.68 1161"><defs><style>.cls-1{fill:none;}.cls-2{clip-path:url(#clip-path);}.cls-3{fill:#939598;}.cls-4{fill:#a7a9ac;}.cls-5{fill:#414042;}.cls-6{font-size:684.37px;font-family:Roboto-Bold, Roboto;font-weight:700;letter-spacing:0.1em;}.cls-11,.cls-6,.cls-9{fill:#f27069;}.cls-7{letter-spacing:0.09em;}.cls-8{letter-spacing:0.1em;}.cls-9{font-size:328.81px;font-family:Roboto-Light, Roboto;font-weight:300;letter-spacing:0.01em;}.cls-10{clip-path:url(#clip-path-2);}.cls-12{fill:#6a6eb3;}.cls-13{fill:#14142e;}</style><clipPath id="clip-path"><circle class="cls-1" cx="742.26" cy="557.75" r="437.77"/></clipPath><clipPath id="clip-path-2"><circle class="cls-1" cx="744.79" cy="558.79" r="437.77"/></clipPath></defs><g class="cls-2"><circle class="cls-3" cx="742.26" cy="557.75" r="437.77"/><polygon class="cls-4" points="1179.49 535.83 1013.38 432.69 963.63 462.06 804.44 325 764.64 373.95 734.79 354.37 635.3 462.06 585.55 432.69 555.71 452.27 505.96 422.9 396.52 511.01 330.14 535.83 316.92 535.83 316.92 754.72 1192.46 754.72 1192.46 535.83 1179.49 535.83"/><path class="cls-5" d="M864.08,580.61h.06v-10L724.85,511v69.65h-10a29.45,29.45,0,0,0-29.39,29.47v40.66a9.47,9.47,0,0,0,9.47,9.46H705a19.9,19.9,0,1,1,39.79,0h69.65a19.9,19.9,0,0,1,39.8,0h10a9.88,9.88,0,0,0,9.88-9.88V590.61A10,10,0,0,0,864.08,580.61ZM744.74,610.45H695v-2.28a17.6,17.6,0,0,1,17.61-17.61h32.13Zm59.7,0H754.69V590.56h49.75Zm59.7,0H814.39V590.56h49.75Z"/><path class="cls-5" d="M732.31,647.28a14.92,14.92,0,1,0,5.46,5.46A14.83,14.83,0,0,0,732.31,647.28Z"/><path class="cls-5" d="M841.75,647.28a14.92,14.92,0,1,0,5.46,5.46A14.8,14.8,0,0,0,841.75,647.28Z"/><polygon class="cls-5" points="539.98 603.15 555.71 603.15 508.79 496.04 461.87 603.15 477.6 603.15 461.87 639.06 478.35 639.06 461.87 676.69 478.35 676.69 461.87 714.33 555.71 714.33 539.22 676.69 555.71 676.69 539.22 639.06 555.71 639.06 539.98 603.15"/><polygon class="cls-5" points="1091.49 573.9 1107.21 573.9 1060.29 466.78 1013.38 573.9 1029.1 573.9 1013.38 609.8 1029.86 609.8 1013.38 647.44 1029.86 647.44 1013.38 685.07 1107.21 685.07 1090.73 647.44 1107.21 647.44 1090.73 609.8 1107.21 609.8 1091.49 573.9"/><polygon class="cls-5" points="457.77 538.31 476.11 538.31 421.39 406.49 366.67 538.31 385.01 538.31 366.67 582.49 385.9 582.49 366.67 628.81 385.9 628.81 366.67 675.12 476.11 675.12 456.89 628.81 476.11 628.81 456.89 582.49 476.11 582.49 457.77 538.31"/><polygon class="cls-5" points="1196.63 538.31 1212.36 538.31 1165.44 406.49 1118.52 538.31 1134.25 538.31 1118.52 582.49 1135.01 582.49 1118.52 628.81 1135.01 628.81 1118.52 675.12 1212.36 675.12 1195.88 628.81 1212.36 628.81 1195.88 582.49 1212.36 582.49 1196.63 538.31"/><polygon class="cls-5" points="357.61 585.6 375.95 585.6 321.23 478.2 266.51 585.6 284.85 585.6 266.51 621.6 285.73 621.6 266.51 659.34 285.73 659.34 266.51 697.08 375.95 697.08 356.72 659.34 375.95 659.34 356.72 621.6 375.95 621.6 357.61 585.6"/><path class="cls-5" d="M1156.81,620.55c-92.1-2.2-175.19,25.88-231.24,71.8-41.29-17.12-91.65-27.17-146-27.17-44.84,0-86.94,6.85-123.49,18.85a398.73,398.73,0,0,0-169.81-2.71c-39.76-21.55-87.84-34.71-139.87-36C206.32,642,90.69,726.31,88.13,833.61s108.93,197,249,200.33a317.71,317.71,0,0,0,112.18-17.16A361.38,361.38,0,0,0,394,1209.42c0,200.57,162.59,363.15,363.15,363.15s363.15-162.58,363.15-363.15a361.58,361.58,0,0,0-38.58-163,412,412,0,0,0,64.74,6.66C1311.87,1057,1448.25,963.39,1451.1,844S1322.19,624.49,1156.81,620.55Z"/></g><text class="cls-6" transform="translate(1334.92 641.37)">D<tspan class="cls-7" x="513.21" y="0">I</tspan><tspan class="cls-8" x="771.78" y="0">Y</tspan></text><text class="cls-9" transform="translate(1348.18 957.65) scale(1.07 1)">trippers</text><g class="cls-10"><circle class="cls-11" cx="744.79" cy="558.79" r="437.77"/><polygon class="cls-12" points="1182.03 536.88 1015.91 433.74 966.16 463.11 806.97 326.05 767.18 375 737.33 355.42 637.84 463.11 588.09 433.74 558.24 453.32 508.5 423.95 399.05 512.06 332.67 536.88 319.46 536.88 319.46 755.77 1195 755.77 1195 536.88 1182.03 536.88"/><path class="cls-13" d="M866.61,581.65h.06V571.7L727.38,512v69.64h-10A29.46,29.46,0,0,0,688,611.13v40.66a9.47,9.47,0,0,0,9.46,9.46h10.06A19.91,19.91,0,0,1,737.33,644a20,20,0,0,1,7.28,7.29,19.83,19.83,0,0,1,2.67,10h69.64A19.91,19.91,0,0,1,846.77,644a20.06,20.06,0,0,1,7.29,7.29,19.82,19.82,0,0,1,2.66,10h10a9.88,9.88,0,0,0,9.88-9.88V591.66A10,10,0,0,0,866.61,581.65ZM747.28,611.5H697.53v-2.29a17.61,17.61,0,0,1,17.61-17.61h32.14Zm59.69,0H757.23V591.6H807Zm59.7,0H816.92V591.6h49.75Z"/><path class="cls-13" d="M734.84,648.33a14.92,14.92,0,1,0,5.46,5.46A14.81,14.81,0,0,0,734.84,648.33Z"/><path class="cls-13" d="M844.28,648.33a15,15,0,1,0,5.46,5.46A14.78,14.78,0,0,0,844.28,648.33Z"/><polygon class="cls-13" points="542.51 604.2 558.24 604.2 511.32 497.08 464.4 604.2 480.13 604.2 464.4 640.1 480.89 640.1 464.4 677.74 480.89 677.74 464.4 715.38 558.24 715.38 541.76 677.74 558.24 677.74 541.76 640.1 558.24 640.1 542.51 604.2"/><polygon class="cls-13" points="1094.02 574.95 1109.75 574.95 1062.83 467.83 1015.91 574.95 1031.63 574.95 1015.91 610.85 1032.39 610.85 1015.91 648.49 1032.39 648.49 1015.91 686.12 1109.75 686.12 1093.26 648.49 1109.75 648.49 1093.26 610.85 1109.75 610.85 1094.02 574.95"/><polygon class="cls-13" points="460.31 539.36 478.65 539.36 423.93 407.54 369.2 539.36 387.55 539.36 369.2 583.54 388.43 583.54 369.2 629.86 388.43 629.86 369.2 676.17 478.65 676.17 459.42 629.86 478.65 629.86 459.42 583.54 478.65 583.54 460.31 539.36"/><polygon class="cls-13" points="1199.17 539.36 1214.89 539.36 1167.97 407.54 1121.06 539.36 1136.78 539.36 1121.06 583.54 1137.54 583.54 1121.06 629.86 1137.54 629.86 1121.06 676.17 1214.89 676.17 1198.41 629.86 1214.89 629.86 1198.41 583.54 1214.89 583.54 1199.17 539.36"/><polygon class="cls-13" points="360.14 586.65 378.48 586.65 323.76 479.25 269.04 586.65 287.38 586.65 269.04 622.65 288.27 622.65 269.04 660.39 288.27 660.39 269.04 698.13 378.48 698.13 359.26 660.39 378.48 660.39 359.26 622.65 378.48 622.65 360.14 586.65"/><path class="cls-13" d="M1159.34,621.6c-92.1-2.2-175.18,25.87-231.24,71.8-41.29-17.12-91.64-27.18-146-27.18-44.83,0-86.94,6.85-123.49,18.86a398.31,398.31,0,0,0-169.81-2.71c-39.76-21.55-87.84-34.71-139.86-36C208.86,643.08,93.23,727.36,90.67,834.66s108.92,197,249,200.33a317.49,317.49,0,0,0,112.18-17.17,361.43,361.43,0,0,0-55.28,192.65c0,200.56,162.58,363.15,363.14,363.15s363.15-162.59,363.15-363.15a361.54,361.54,0,0,0-38.57-163,411.84,411.84,0,0,0,64.74,6.65c165.38,4,301.75-89.68,304.6-209.12S1324.72,625.54,1159.34,621.6Z"/></g></svg>