<svg id="Layer_1" data-name="Layer 1" xmlns="http://www.w3.org/2000/svg" xmlns:xlink="http://www.w3.org/1999/xlink" viewBox="0 0 2902.68 2902.68"><defs><style>.cls-1{fill:none;}.cls-2{clip-path:url(#clip-path);}.cls-3{fill:#939598;}.cls-4{fill:#a7a9ac;}.cls-5{fill:#414042;}</style><clipPath id="clip-path"><circle class="cls-1" cx="1451.34" cy="1451.34" r="1182.05"/></clipPath></defs><g class="cls-2"><circle class="cls-3" cx="1451.34" cy="1451.34" r="1182.05"/><polygon class="cls-4" points="2631.95 1392.17 2183.4 1113.68 2049.08 1192.98 1619.24 822.89 1511.78 955.07 1431.19 902.2 1162.54 1192.98 1028.22 1113.68 947.63 1166.55 813.3 1087.24 517.79 1325.16 338.55 1392.17 302.87 1392.17 302.87 1983.2 2666.97 1983.2 2666.97 1392.17 2631.95 1392.17"/><path class="cls-5" d="M1780.28,1513.06h.15V1486.2L1404.33,1325v188h-27.11a79.55,79.55,0,0,0-79.34,79.58v109.79a25.56,25.56,0,0,0,25.55,25.55h27.17a53.73,53.73,0,1,1,107.45,0h188.06a53.73,53.73,0,0,1,107.46,0h27a26.68,26.68,0,0,0,26.69-26.68V1540.08A27,27,0,0,0,1780.28,1513.06Zm-322.23,80.6H1323.73v-6.18a47.54,47.54,0,0,1,47.55-47.55h86.77Zm161.19,0H1484.92v-53.73h134.32Zm161.19,0H1646.11v-53.73h134.32Z"/><path class="cls-5" d="M1424.47,1693.09a40.27,40.27,0,1,0,14.75,14.74A40.17,40.17,0,0,0,1424.47,1693.09Z"/><path class="cls-5" d="M1720,1693.09a40.29,40.29,0,1,0,14.74,14.74A40.21,40.21,0,0,0,1720,1693.09Z"/><polygon class="cls-5" points="905.16 1573.94 947.63 1573.94 820.94 1284.71 694.25 1573.94 736.71 1573.94 694.25 1670.89 738.76 1670.89 694.25 1772.51 738.76 1772.51 694.25 1874.14 947.63 1874.14 903.11 1772.51 947.63 1772.51 903.11 1670.89 947.63 1670.89 905.16 1573.94"/><polygon class="cls-5" points="2394.32 1494.95 2436.78 1494.95 2310.09 1205.72 2183.4 1494.95 2225.87 1494.95 2183.4 1591.89 2227.92 1591.89 2183.4 1693.52 2227.92 1693.52 2183.4 1795.14 2436.78 1795.14 2392.27 1693.52 2436.78 1693.52 2392.27 1591.89 2436.78 1591.89 2394.32 1494.95"/><polygon class="cls-5" points="683.18 1398.86 732.71 1398.86 584.95 1042.93 437.2 1398.86 486.72 1398.86 437.2 1518.16 489.11 1518.16 437.2 1643.22 489.11 1643.22 437.2 1768.28 732.71 1768.28 680.79 1643.22 732.71 1643.22 680.79 1518.16 732.71 1518.16 683.18 1398.86"/><polygon class="cls-5" points="2678.23 1398.86 2720.7 1398.86 2594.01 1042.93 2467.32 1398.86 2509.78 1398.86 2467.32 1518.16 2511.83 1518.16 2467.32 1643.22 2511.83 1643.22 2467.32 1768.28 2720.7 1768.28 2676.18 1643.22 2720.7 1643.22 2676.18 1518.16 2720.7 1518.16 2678.23 1398.86"/><polygon class="cls-5" points="412.72 1526.56 462.25 1526.56 314.49 1236.54 166.74 1526.56 216.26 1526.56 166.74 1623.77 218.65 1623.77 166.74 1725.67 218.65 1725.67 166.74 1827.57 462.25 1827.57 410.33 1725.67 462.25 1725.67 410.33 1623.77 462.25 1623.77 412.72 1526.56"/><path class="cls-5" d="M2570.69,1620.92c-248.68-5.93-473,69.87-624.39,193.88-111.48-46.22-247.45-73.39-394.22-73.39-121.06,0-234.75,18.5-333.44,50.91a1058.29,1058.29,0,0,0-220.58-28.19c-83.43-2-163.59,5.48-237.94,20.87-107.36-58.17-237.17-93.71-377.66-97.06-378.23-9-690.45,218.55-697.36,508.28s294.11,531.91,672.35,540.93c108.26,2.58,211.08-14.26,302.9-46.35C565.8,2841.58,511.07,3019.87,511.07,3211c0,541.55,439,980.56,980.57,980.56s980.56-439,980.56-980.56A976.42,976.42,0,0,0,2368,2770.84a1112.21,1112.21,0,0,0,174.81,18c446.55,10.65,814.79-242.16,822.48-564.67S3017.25,1631.57,2570.69,1620.92Z"/></g></svg>