<svg id="Layer_1" data-name="Layer 1" xmlns="http://www.w3.org/2000/svg" xmlns:xlink="http://www.w3.org/1999/xlink" viewBox="0 0 2902.68 2902.68"><defs><style>.cls-1{fill:none;}.cls-2{clip-path:url(#clip-path);}.cls-12,.cls-3,.cls-9{fill:#414042;}.cls-4{clip-path:url(#clip-path-2);}.cls-5{fill:#14142e;}.cls-6{clip-path:url(#clip-path-3);}.cls-7{fill:#939598;}.cls-8{fill:#a7a9ac;}.cls-9{font-size:684.37px;font-family:Roboto-Bold, Roboto;font-weight:700;letter-spacing:0.1em;}.cls-10{letter-spacing:0.09em;}.cls-11{letter-spacing:0.1em;}.cls-12{font-size:328.81px;font-family:Roboto-Light, Roboto;font-weight:300;letter-spacing:0em;}</style><clipPath id="clip-path"><circle class="cls-1" cx="1393.02" cy="-2418.66" r="1182.05"/></clipPath><clipPath id="clip-path-2"><circle class="cls-1" cx="4632.88" cy="-2418.66" r="1182.05"/></clipPath><clipPath id="clip-path-3"><circle class="cls-1" cx="748.84" cy="1457.75" r="437.77"/></clipPath></defs><g class="cls-2"><path class="cls-3" d="M2512.37-2249.08c-248.68-5.93-473,69.87-624.39,193.88-111.49-46.22-247.46-73.39-394.22-73.39-121.06,0-234.76,18.5-333.45,50.91a1058.1,1058.1,0,0,0-220.57-28.19c-83.43-2-163.59,5.48-237.94,20.87-107.36-58.17-237.17-93.71-377.66-97.06-378.23-9-690.45,218.55-697.36,508.28s294.11,531.91,672.34,540.93c108.26,2.58,211.08-14.26,302.91-46.35C507.48-1028.42,452.75-850.13,452.75-659c0,541.55,439,980.56,980.56,980.56s980.56-439,980.56-980.56a976.29,976.29,0,0,0-104.16-440.14,1112.21,1112.21,0,0,0,174.81,18c446.56,10.65,814.79-242.16,822.48-564.67S2958.92-2238.43,2512.37-2249.08Z"/></g><g class="cls-4"><path class="cls-5" d="M5752.23-2249.08c-248.67-5.93-473,69.87-624.39,193.88-111.48-46.22-247.45-73.39-394.22-73.39-121.06,0-234.75,18.5-333.44,50.91a1058.29,1058.29,0,0,0-220.58-28.19c-83.43-2-163.59,5.48-237.93,20.87-107.36-58.17-237.18-93.71-377.66-97.06-378.24-9-690.46,218.55-697.37,508.28s294.11,531.91,672.35,540.93c108.26,2.58,211.08-14.26,302.9-46.35-94.55,150.78-149.27,329.07-149.27,520.18,0,541.55,439,980.56,980.56,980.56s980.56-439,980.56-980.56a976.42,976.42,0,0,0-104.16-440.14,1112.21,1112.21,0,0,0,174.81,18c446.55,10.65,814.79-242.16,822.48-564.67S6198.79-2238.43,5752.23-2249.08Z"/></g><g class="cls-6"><circle class="cls-7" cx="748.84" cy="1457.75" r="437.77"/><polygon class="cls-8" points="1186.08 1435.83 1019.96 1332.69 970.22 1362.07 811.03 1225 771.23 1273.95 741.38 1254.37 641.89 1362.07 592.14 1332.69 562.29 1352.28 512.55 1322.9 403.11 1411.02 336.72 1435.83 323.51 1435.83 323.51 1654.72 1199.05 1654.72 1199.05 1435.83 1186.08 1435.83"/><path class="cls-3" d="M870.67,1480.61h.05v-9.95L731.43,1411v69.65h-10A29.45,29.45,0,0,0,692,1510.08v40.66a9.47,9.47,0,0,0,9.46,9.46h10.06a19.9,19.9,0,1,1,39.8,0H821a19.9,19.9,0,1,1,39.79,0h10a9.88,9.88,0,0,0,9.88-9.88v-59.71A10,10,0,0,0,870.67,1480.61Zm-119.34,29.84H701.58v-2.28a17.61,17.61,0,0,1,17.61-17.61h32.14Zm59.7,0H761.28v-19.89H811Zm59.69,0H821v-19.89h49.74Z"/><path class="cls-3" d="M738.89,1547.28a14.91,14.91,0,1,0,5.47,20.38,14.91,14.91,0,0,0-5.47-20.38Z"/><path class="cls-3" d="M848.34,1547.28a14.92,14.92,0,1,0,5.46,5.46A14.84,14.84,0,0,0,848.34,1547.28Z"/><polygon class="cls-3" points="546.57 1503.15 562.29 1503.15 515.38 1396.04 468.45 1503.15 484.18 1503.15 468.45 1539.06 484.94 1539.06 468.45 1576.69 484.94 1576.69 468.45 1614.33 562.29 1614.33 545.81 1576.69 562.29 1576.69 545.81 1539.06 562.29 1539.06 546.57 1503.15"/><polygon class="cls-3" points="1098.07 1473.9 1113.8 1473.9 1066.88 1366.78 1019.96 1473.9 1035.69 1473.9 1019.96 1509.8 1036.45 1509.8 1019.96 1547.44 1036.45 1547.44 1019.96 1585.07 1113.8 1585.07 1097.31 1547.44 1113.8 1547.44 1097.31 1509.8 1113.8 1509.8 1098.07 1473.9"/><polygon class="cls-3" points="464.36 1438.31 482.7 1438.31 427.98 1306.49 373.26 1438.31 391.6 1438.31 373.26 1482.49 392.48 1482.49 373.26 1528.81 392.48 1528.81 373.26 1575.12 482.7 1575.12 463.47 1528.81 482.7 1528.81 463.47 1482.49 482.7 1482.49 464.36 1438.31"/><polygon class="cls-3" points="1203.22 1438.31 1218.95 1438.31 1172.03 1306.49 1125.11 1438.31 1140.84 1438.31 1125.11 1482.49 1141.6 1482.49 1125.11 1528.81 1141.6 1528.81 1125.11 1575.12 1218.95 1575.12 1202.46 1528.81 1218.95 1528.81 1202.46 1482.49 1218.95 1482.49 1203.22 1438.31"/><polygon class="cls-3" points="364.19 1485.6 382.54 1485.6 327.81 1378.2 273.09 1485.6 291.44 1485.6 273.09 1521.6 292.32 1521.6 273.09 1559.34 292.32 1559.34 273.09 1597.08 382.54 1597.08 363.31 1559.34 382.54 1559.34 363.31 1521.6 382.54 1521.6 364.19 1485.6"/><path class="cls-3" d="M1163.39,1520.55c-92.09-2.2-175.18,25.88-231.24,71.8-41.29-17.12-91.64-27.17-146-27.17-44.83,0-86.94,6.85-123.49,18.85a398.73,398.73,0,0,0-169.81-2.71c-39.76-21.55-87.83-34.71-139.86-36C212.91,1542,97.28,1626.31,94.72,1733.61s108.92,197,249,200.33a317.64,317.64,0,0,0,112.18-17.16,361.46,361.46,0,0,0-55.28,192.64c0,200.57,162.59,363.15,363.15,363.15s363.15-162.58,363.15-363.15a361.58,361.58,0,0,0-38.58-163,411.83,411.83,0,0,0,64.74,6.66c165.38,3.94,301.76-89.69,304.61-209.13S1328.77,1524.49,1163.39,1520.55Z"/></g><text class="cls-9" transform="translate(1341.51 1541.37)">D<tspan class="cls-10" x="513.21" y="0">I</tspan><tspan class="cls-11" x="771.78" y="0">Y</tspan></text><text class="cls-12" transform="translate(1354.77 1857.65) scale(1.07 1)">trippers</text></svg>