<svg id="Layer_1" data-name="Layer 1" xmlns="http://www.w3.org/2000/svg" xmlns:xlink="http://www.w3.org/1999/xlink" viewBox="0 0 2902.68 2902.68"><defs><style>.cls-1{fill:none;}.cls-2{font-size:898.62px;font-family:Roboto-Bold, Roboto;font-weight:700;letter-spacing:0.1em;}.cls-2,.cls-4,.cls-6{fill:#f27069;}.cls-3{letter-spacing:0.09em;}.cls-4{font-size:431.76px;font-family:Roboto-Light, Roboto;font-weight:300;letter-spacing:0em;}.cls-5{clip-path:url(#clip-path);}.cls-7{fill:#6a6eb3;}.cls-8{fill:#14142e;}</style><clipPath id="clip-path"><circle class="cls-1" cx="1451.34" cy="799.04" r="437.77"/></clipPath></defs><text class="cls-2" transform="translate(621.96 2009.11)">D<tspan class="cls-3" x="673.88" y="0">I</tspan><tspan x="1013.41" y="0">Y</tspan></text><text class="cls-4" transform="translate(639.37 2424.41) scale(1.07 1)">trippers</text><g class="cls-5"><circle class="cls-6" cx="1451.34" cy="799.04" r="437.77"/><polygon class="cls-7" points="1888.57 777.12 1722.46 673.98 1672.71 703.36 1513.52 566.29 1473.72 615.24 1443.88 595.66 1344.38 703.36 1294.64 673.98 1264.79 693.57 1215.04 664.19 1105.6 752.3 1039.22 777.12 1026.01 777.12 1026.01 996.01 1901.54 996.01 1901.54 777.12 1888.57 777.12"/><path class="cls-8" d="M1573.16,821.9h.06V812l-139.29-59.7V821.9h-10a29.45,29.45,0,0,0-29.38,29.47V892a9.46,9.46,0,0,0,9.46,9.46H1414a19.9,19.9,0,0,1,39.8,0h69.64a19.9,19.9,0,0,1,39.8,0h10a9.88,9.88,0,0,0,9.89-9.88V831.9A10,10,0,0,0,1573.16,821.9Zm-119.33,29.84h-49.75v-2.28a17.6,17.6,0,0,1,17.61-17.61h32.14Zm59.69,0h-49.74V831.85h49.74Zm59.7,0h-49.75V831.85h49.75Z"/><path class="cls-8" d="M1441.39,888.57a14.92,14.92,0,1,0,5.46,5.46A14.8,14.8,0,0,0,1441.39,888.57Z"/><path class="cls-8" d="M1550.83,888.57a14.92,14.92,0,1,0,5.46,5.46A14.8,14.8,0,0,0,1550.83,888.57Z"/><polygon class="cls-8" points="1249.06 844.44 1264.79 844.44 1217.87 737.33 1170.95 844.44 1186.68 844.44 1170.95 880.35 1187.44 880.35 1170.95 917.98 1187.44 917.98 1170.95 955.62 1264.79 955.62 1248.3 917.98 1264.79 917.98 1248.3 880.35 1264.79 880.35 1249.06 844.44"/><polygon class="cls-8" points="1800.57 815.19 1816.3 815.19 1769.38 708.07 1722.46 815.19 1738.18 815.19 1722.46 851.09 1738.94 851.09 1722.46 888.73 1738.94 888.73 1722.46 926.36 1816.3 926.36 1799.81 888.73 1816.3 888.73 1799.81 851.09 1816.3 851.09 1800.57 815.19"/><polygon class="cls-8" points="1166.85 779.6 1185.19 779.6 1130.47 647.78 1075.75 779.6 1094.1 779.6 1075.75 823.78 1094.98 823.78 1075.75 870.1 1094.98 870.1 1075.75 916.41 1185.19 916.41 1165.97 870.1 1185.19 870.1 1165.97 823.78 1185.19 823.78 1166.85 779.6"/><polygon class="cls-8" points="1905.72 779.6 1921.44 779.6 1874.52 647.78 1827.6 779.6 1843.33 779.6 1827.6 823.78 1844.09 823.78 1827.6 870.1 1844.09 870.1 1827.6 916.41 1921.44 916.41 1904.96 870.1 1921.44 870.1 1904.96 823.78 1921.44 823.78 1905.72 779.6"/><polygon class="cls-8" points="1066.69 826.89 1085.03 826.89 1030.31 719.49 975.59 826.89 993.93 826.89 975.59 862.89 994.82 862.89 975.59 900.63 994.82 900.63 975.59 938.37 1085.03 938.37 1065.8 900.63 1085.03 900.63 1065.8 862.89 1085.03 862.89 1066.69 826.89"/><path class="cls-8" d="M1865.89,861.84c-92.1-2.2-175.19,25.88-231.24,71.8-41.29-17.12-91.65-27.18-146-27.18-44.83,0-86.94,6.85-123.49,18.86a398.73,398.73,0,0,0-169.81-2.71c-39.76-21.55-87.84-34.71-139.87-36-140.07-3.34-255.71,80.94-258.26,188.24s108.92,197,249,200.33a317.71,317.71,0,0,0,112.18-17.16,361.38,361.38,0,0,0-55.29,192.64c0,200.57,162.59,363.15,363.15,363.15s363.15-162.58,363.15-363.15a361.67,361.67,0,0,0-38.57-163,411.83,411.83,0,0,0,64.74,6.66c165.38,3.94,301.75-89.69,304.6-209.13S2031.27,865.78,1865.89,861.84Z"/></g></svg>