<svg id="Layer_1" data-name="Layer 1" xmlns="http://www.w3.org/2000/svg" xmlns:xlink="http://www.w3.org/1999/xlink" viewBox="0 0 2902.68 2902.68"><defs><style>.cls-1{fill:none;}.cls-2{clip-path:url(#clip-path);}.cls-3{fill:#939598;}.cls-4{fill:#a7a9ac;}.cls-5,.cls-6,.cls-8{fill:#414042;}.cls-6{font-size:898.62px;font-family:Roboto-Bold, Roboto;font-weight:700;letter-spacing:0.1em;}.cls-7{letter-spacing:0.09em;}.cls-8{font-size:431.76px;font-family:Roboto-Light, Roboto;font-weight:300;letter-spacing:0em;}</style><clipPath id="clip-path"><circle class="cls-1" cx="1446.79" cy="793.45" r="437.77"/></clipPath></defs><g class="cls-2"><circle class="cls-3" cx="1446.79" cy="793.45" r="437.77"/><polygon class="cls-4" points="1884.03 771.53 1717.91 668.39 1668.16 697.76 1508.97 560.7 1469.18 609.65 1439.33 590.07 1339.84 697.76 1290.09 668.39 1260.24 687.97 1210.49 658.6 1101.05 746.72 1034.67 771.53 1021.46 771.53 1021.46 990.42 1897 990.42 1897 771.53 1884.03 771.53"/><path class="cls-5" d="M1568.61,816.31h.06v-9.95l-139.29-59.7v69.65h-10A29.45,29.45,0,0,0,1390,845.78v40.66a9.46,9.46,0,0,0,9.46,9.46h10.06a19.9,19.9,0,0,1,39.8,0h69.64a19.9,19.9,0,1,1,39.8,0h10a9.88,9.88,0,0,0,9.88-9.88V826.31A10,10,0,0,0,1568.61,816.31Zm-119.33,29.84h-49.75v-2.28a17.6,17.6,0,0,1,17.61-17.61h32.14Zm59.69,0h-49.74V826.26H1509Zm59.7,0h-49.75V826.26h49.75Z"/><path class="cls-5" d="M1436.84,883a14.92,14.92,0,1,0,5.46,5.46A14.8,14.8,0,0,0,1436.84,883Z"/><path class="cls-5" d="M1546.28,883a14.92,14.92,0,1,0,5.46,5.46A14.77,14.77,0,0,0,1546.28,883Z"/><polygon class="cls-5" points="1244.51 838.85 1260.24 838.85 1213.32 731.74 1166.4 838.85 1182.13 838.85 1166.4 874.76 1182.89 874.76 1166.4 912.39 1182.89 912.39 1166.4 950.03 1260.24 950.03 1243.76 912.39 1260.24 912.39 1243.76 874.76 1260.24 874.76 1244.51 838.85"/><polygon class="cls-5" points="1796.02 809.6 1811.75 809.6 1764.83 702.48 1717.91 809.6 1733.63 809.6 1717.91 845.5 1734.39 845.5 1717.91 883.14 1734.39 883.14 1717.91 920.77 1811.75 920.77 1795.26 883.14 1811.75 883.14 1795.26 845.5 1811.75 845.5 1796.02 809.6"/><polygon class="cls-5" points="1162.31 774.01 1180.65 774.01 1125.92 642.19 1071.2 774.01 1089.55 774.01 1071.2 818.19 1090.43 818.19 1071.2 864.51 1090.43 864.51 1071.2 910.82 1180.65 910.82 1161.42 864.51 1180.65 864.51 1161.42 818.19 1180.65 818.19 1162.31 774.01"/><polygon class="cls-5" points="1901.17 774.01 1916.89 774.01 1869.97 642.19 1823.06 774.01 1838.78 774.01 1823.06 818.19 1839.54 818.19 1823.06 864.51 1839.54 864.51 1823.06 910.82 1916.89 910.82 1900.41 864.51 1916.89 864.51 1900.41 818.19 1916.89 818.19 1901.17 774.01"/><polygon class="cls-5" points="1062.14 821.3 1080.48 821.3 1025.76 713.9 971.04 821.3 989.38 821.3 971.04 857.3 990.27 857.3 971.04 895.04 990.27 895.04 971.04 932.78 1080.48 932.78 1061.26 895.04 1080.48 895.04 1061.26 857.3 1080.48 857.3 1062.14 821.3"/><path class="cls-5" d="M1861.34,856.25c-92.1-2.2-175.18,25.88-231.24,71.8-41.29-17.12-91.65-27.17-146-27.17-44.83,0-86.94,6.84-123.49,18.85A398.73,398.73,0,0,0,1190.8,917c-39.76-21.55-87.84-34.71-139.87-35.95-140.07-3.34-255.7,80.94-258.26,188.24s108.92,197,249,200.33a317.71,317.71,0,0,0,112.18-17.16,361.38,361.38,0,0,0-55.29,192.64c0,200.57,162.59,363.15,363.15,363.15s363.15-162.58,363.15-363.15a361.7,361.7,0,0,0-38.57-163,411.83,411.83,0,0,0,64.74,6.66c165.38,3.94,301.75-89.69,304.6-209.13S2026.72,860.19,1861.34,856.25Z"/></g><text class="cls-6" transform="translate(621.96 2009.11)">D<tspan class="cls-7" x="673.88" y="0">I</tspan><tspan x="1013.41" y="0">Y</tspan></text><text class="cls-8" transform="translate(639.37 2424.41) scale(1.07 1)">trippers</text></svg>