<?xml version="1.0" encoding="utf-8"?>
<!-- Generator: Adobe Illustrator 26.0.3, SVG Export Plug-In . SVG Version: 6.00 Build 0)  -->
<svg version="1.1" id="Layer_1" xmlns="http://www.w3.org/2000/svg" xmlns:xlink="http://www.w3.org/1999/xlink" x="0px" y="0px"
	 viewBox="0 0 867.1 867.1" style="enable-background:new 0 0 867.1 867.1;" xml:space="preserve">
<style type="text/css">
	.st0{fill:#849690;}
	.st1{fill:#2D4B41;}
</style>
<g id="Layer_2_00000076565020971225463700000005242734130062907286_">
	<g id="Layer_1-2">
		<circle class="st0" cx="433.5" cy="433.5" r="433.5"/>
		<path class="st1" d="M377.5,414.8c31.8-15.2,48.4-38.2,48.4-74c0-70.6-52.6-87.8-113.3-87.8H145.5v354.4h171.8
			c64.4,0,124.9-30.9,124.9-102.9C442.2,460,421.1,427.1,377.5,414.8L377.5,414.8z M223.4,313.5h73.1c28.1,0,53.4,7.9,53.4,40.5
			c0,30.1-19.7,42.2-47.5,42.2h-79V313.5z M306.7,547.2h-83.3v-97.6h84.9c34.3,0,56,14.3,56,50.6C364.3,536,338.4,547.2,306.7,547.2
			z M665.2,306.5H521.5v-34.9h143.7L665.2,306.5L665.2,306.5z M721.5,482.8c0-75.9-44.4-139.2-124.9-139.2
			c-78.2,0-131.3,58.8-131.3,135.8c0,79.9,50.3,134.7,131.3,134.7c61.3,0,101-27.6,120.1-86.3h-62.2c-6.7,21.9-34.3,33.5-55.7,33.5
			c-41.3,0-63-24.2-63-65.3h185.1C721.2,491.8,721.5,487.3,721.5,482.8L721.5,482.8z M535.9,451.6c2.3-33.7,24.7-54.8,58.5-54.8
			c35.4,0,53.2,20.8,56.2,54.8H535.9z"/>
	</g>
</g>
</svg>
