<svg xmlns="http://www.w3.org/2000/svg" viewBox="0 0 639.97 512.03"><defs><style>.cls-1{fill:#d7e0dd;}</style></defs><g id="Layer_2" data-name="Layer 2"><g id="Layer_1-2" data-name="Layer 1"><path class="cls-1" d="M414.8,40.8l-128,448a32,32,0,1,1-61.6-17.6l128-448A32,32,0,0,1,414.8,40.8Zm103.8,80.61,112,112a31.93,31.93,0,0,1,0,45.2l-112,112a32,32,0,0,1-45.2-45.2L562.7,256l-89.3-89.4a32,32,0,1,1,45.2-45.2Zm-352,45.2L77.25,256l89.35,89.4a32,32,0,0,1-45.2,45.2l-112-112a32,32,0,0,1,0-45.2l112-112a32,32,0,1,1,45.2,45.2Z"/></g></g></svg>