<?xml version="1.0" encoding="utf-8"?>
<!-- Generator: Adobe Illustrator 26.0.3, SVG Export Plug-In . SVG Version: 6.00 Build 0)  -->
<svg version="1.1" id="Layer_1" xmlns="http://www.w3.org/2000/svg" xmlns:xlink="http://www.w3.org/1999/xlink" x="0px" y="0px"
	 viewBox="0 0 867.1 867.1" style="enable-background:new 0 0 867.1 867.1;" xml:space="preserve">
<style type="text/css">
	.st0{fill:#849690;}
	.st1{fill:#2D4B41;}
</style>
<g id="Layer_2_00000022533172597157770230000015440375729905682860_">
	<g id="Layer_1-2">
		<circle class="st0" cx="433.5" cy="433.5" r="433.5"/>
		<path class="st1" d="M433.6,318.6c-63.5,0-114.9,51.4-114.9,114.9s51.4,114.9,114.9,114.9S548.5,497,548.5,433.5l0,0
			c0.1-63.4-51.2-114.8-114.5-114.9C433.8,318.6,433.7,318.6,433.6,318.6z M433.6,508.2c-41.3,0-74.7-33.4-74.7-74.7
			s33.4-74.7,74.7-74.7s74.7,33.4,74.7,74.7v0C508.2,474.8,474.8,508.2,433.6,508.2L433.6,508.2z M580,313.9
			c0,14.8-12,26.8-26.8,26.8s-26.8-12-26.8-26.8c0-14.8,12-26.8,26.8-26.8l0,0c14.8,0,26.8,11.9,26.8,26.7
			C580,313.8,580,313.9,580,313.9z M656.1,341.1c-1.7-35.9-9.9-67.7-36.2-93.9s-58-34.4-93.9-36.2c-37-2.1-147.9-2.1-184.9,0
			c-35.8,1.7-67.6,9.9-93.9,36.1c-26.3,26.2-34.4,58-36.2,93.9c-2.1,37-2.1,147.9,0,184.9c1.7,35.9,9.9,67.7,36.2,93.9
			s58,34.4,93.9,36.2c37,2.1,147.9,2.1,184.9,0c35.9-1.7,67.7-9.9,93.9-36.2s34.4-58,36.2-93.9C658.2,488.9,658.2,378.1,656.1,341.1
			z M608.3,565.6c-7.7,19.5-23.1,34.9-42.6,42.6c-29.5,11.7-99.5,9-132.1,9s-102.7,2.6-132.1-9c-19.5-7.7-34.9-23.1-42.6-42.6
			c-11.7-29.5-9-99.5-9-132.1s-2.6-102.7,9-132.1c7.7-19.5,23.1-34.9,42.6-42.6c29.5-11.7,99.5-9,132.1-9s102.7-2.6,132.1,9
			c19.5,7.7,34.9,23.1,42.6,42.6c11.7,29.5,9,99.5,9,132.1S620,536.2,608.3,565.6L608.3,565.6z"/>
	</g>
</g>
</svg>
