<?xml version="1.0" encoding="utf-8"?>
<!-- Generator: Adobe Illustrator 26.0.3, SVG Export Plug-In . SVG Version: 6.00 Build 0)  -->
<svg version="1.1" id="Layer_1" xmlns="http://www.w3.org/2000/svg" xmlns:xlink="http://www.w3.org/1999/xlink" x="0px" y="0px"
	 viewBox="0 0 867.1 867.1" style="enable-background:new 0 0 867.1 867.1;" xml:space="preserve">
<style type="text/css">
	.st0{fill:#849690;}
	.st1{fill:#2D4B41;}
</style>
<g id="Layer_2_00000088843434921319485780000000724026599156640649_">
	<g id="Layer_1-2">
		<circle class="st0" cx="433.5" cy="433.5" r="433.5"/>
		<path d="M309.8,657.5h-92.9V358.4h92.9V657.5z M263.3,317.6c-29.7,0-53.8-24.6-53.8-54.3c0-29.7,24.1-53.8,53.8-53.8
			s53.8,24.1,53.8,53.8c0,0,0,0,0,0.1C317.1,293,293,317.6,263.3,317.6L263.3,317.6z M657.4,657.5h-92.7V511.9
			c0-34.7-0.7-79.2-48.3-79.2c-48.3,0-55.7,37.7-55.7,76.7v148.1H368V358.4h89.1v40.8h1.3c12.4-23.5,42.7-48.3,87.9-48.3
			c94,0,111.3,61.9,111.3,142.3v164.3L657.4,657.5z"/>
		<path class="st1" d="M309.8,657.5h-92.9V358.4h92.9V657.5z M263.3,317.6c-29.7,0-53.8-24.6-53.8-54.3c0-29.7,24.1-53.8,53.8-53.8
			s53.8,24.1,53.8,53.8c0,0,0,0,0,0.1C317.1,293,293,317.6,263.3,317.6L263.3,317.6z M657.4,657.5h-92.7V511.9
			c0-34.7-0.7-79.2-48.3-79.2c-48.3,0-55.7,37.7-55.7,76.7v148.1H368V358.4h89.1v40.8h1.3c12.4-23.5,42.7-48.3,87.9-48.3
			c94,0,111.3,61.9,111.3,142.3v164.3L657.4,657.5z"/>
	</g>
</g>
</svg>
