<svg xmlns="http://www.w3.org/2000/svg" viewBox="0 0 507.95 507.93"><defs><style>.cls-1{fill:#d7e0dd;}</style></defs><g id="Layer_2" data-name="Layer 2"><g id="Layer_1-2" data-name="Layer 1"><path class="cls-1" d="M366.3,16.4a56,56,0,0,1,79.2,0l46.1,46.06a56.13,56.13,0,0,1,0,79.2l-55.8,55.7L310.6,72.12Zm49,205.66-46,153.3a64,64,0,0,1-40.9,42.3L64.07,506.26A32,32,0,0,1,31.64,499L185.2,345.36a47.1,47.1,0,0,0,19.8,4.7c27.4,0,48-21.5,48-48s-20.6-48-48-48c-25.6,0-48,21.5-48,48,0,7.4,2.6,14.4,5.6,20.7L9,476.36a32.13,32.13,0,0,1-7.35-32.5l88.63-264.3c5.71-19.7,22.41-34.9,42.31-40.9l152.4-46Z"/></g></g></svg>