<svg xmlns="http://www.w3.org/2000/svg" viewBox="0 0 867.07 867.07"><defs><style>.cls-1{fill:#2e4e44;}.cls-2{fill:#d7e0dd;}</style></defs><g id="Layer_2" data-name="Layer 2"><g id="Layer_1-2" data-name="Layer 1"><circle class="cls-1" cx="433.53" cy="433.53" r="433.53"/><path class="cls-2" d="M688.76,564.53l-23.25,100.8a31.08,31.08,0,0,1-30.46,24.22c-252.29,0-457.49-205.22-457.49-457.52a31.06,31.06,0,0,1,24.22-30.45l100.8-23.25a31.39,31.39,0,0,1,35.78,18.12L384.88,305a31.29,31.29,0,0,1-9,36.45l-53.84,43.23a349.66,349.66,0,0,0,159.5,159.5l44.08-53.8a31.12,31.12,0,0,1,36.47-9l108.5,46.51C683.66,534.73,692.16,549.93,688.76,564.53Z"/></g></g></svg>