<svg id="Layer_1" data-name="Layer 1" xmlns="http://www.w3.org/2000/svg" viewBox="0 0 1751.81 1751.81"><defs><style>.cls-1{fill:#c7a1a0;}</style></defs><path class="cls-1" d="M1300.79,914l.79-1a376.26,376.26,0,0,0,80.83-233.6h0a414.15,414.15,0,0,0-132-303.7c-1.82-1.7-3.66-3.39-5.51-5.05A413.74,413.74,0,0,0,967.13,264.08h-209v-.16H369.4v1223q9,.49,18.22.5a331.08,331.08,0,0,0,326.6-277.2q.9-5.55,1.63-11.17a334.89,334.89,0,0,0-2.33-100.4q-1-5.88-2.28-11.68-.59-2.75-1.21-5.47a599.88,599.88,0,0,1,36.38-342.69h.23a158.34,158.34,0,0,1,23.74-40.73c.52-.64,1-1.28,1.57-1.91.28-.35.56-.69.85-1l.16-.19c.57-.67,1.15-1.34,1.73-2s1.22-1.39,1.85-2.07,1.28-1.41,1.94-2.1c.43-.47.87-.93,1.32-1.39l1.43-1.47.84-.84q.76-.78,1.56-1.53l.69-.66c.62-.61,1.25-1.2,1.89-1.79.82-.76,1.66-1.51,2.5-2.26.52-.46,1-.91,1.56-1.36s1.05-.91,1.58-1.35l1.6-1.33,1.69-1.36c.69-.55,1.38-1.1,2.08-1.63.54-.42,1.09-.84,1.64-1.24,1.88-1.42,3.8-2.79,5.76-4.13.6-.41,1.2-.82,1.81-1.21l.64-.43c.55-.37,1.11-.73,1.67-1.09l2.6-1.62a159.17,159.17,0,0,1,145.24-11c3.71,1.55,7.36,3.26,10.94,5.1a158.6,158.6,0,0,1,59.1,52.41c1.34,2,2.65,4,3.91,6.08a160.18,160.18,0,0,1,12.11,24.09q2.41,6,4.3,12.1h0a171.05,171.05,0,0,1-250,50.72,164.9,164.9,0,0,1-14.76-12.39,170.59,170.59,0,0,1-27.55-33.54c-32.26,84.07-43.39,175.58-28.38,268.32A510.77,510.77,0,0,0,740.53,1087a517,517,0,0,0,88.7,172c106.37,136.52,279.48,223.07,471.56,228.89l.79,0v0h38.52q19.11-.51,38.41-2.11h0L1301.58,1340l-.79-1.5-161.47-306A378.87,378.87,0,0,0,1300.79,914ZM957.68,639.09a170.62,170.62,0,0,0-149.11,11.19c-1.09.63-2.18,1.28-3.26,1.94a172.83,172.83,0,0,0-24.91,18.53h0a170.38,170.38,0,0,0-40.75,55.06,171,171,0,0,1,142-231.2,158.1,158.1,0,0,1,27.93,21.66q4.26,4.11,8.23,8.62,4.26,4.79,8.14,10,4.5,6,8.5,12.52A158.6,158.6,0,0,1,957.68,639.09Zm72.88,55.24A169.81,169.81,0,0,0,968.93,644a170.12,170.12,0,0,0-24.67-102.65c-.38-.63-.79-1.27-1.18-1.9a133.57,133.57,0,0,1,87.48,154.87Z"/></svg>