<?xml version="1.0" encoding="utf-8"?>
<!-- Generator: Adobe Illustrator 26.0.3, SVG Export Plug-In . SVG Version: 6.00 Build 0)  -->
<svg version="1.1" id="Layer_1" xmlns="http://www.w3.org/2000/svg" xmlns:xlink="http://www.w3.org/1999/xlink" x="0px" y="0px"
	 viewBox="0 0 320 320" style="enable-background:new 0 0 320 320;" xml:space="preserve">
<style type="text/css">
	.st0{fill:#D7E0DD;}
</style>
<path class="st0" d="M310.6,265.4c13,12,13.8,32.2,1.8,45.2s-32.2,13.8-45.2,1.8c-0.6-0.6-1.2-1.2-1.8-1.8L160,205.3L54.6,310.6
	c-12.7,12.3-32.9,12-45.2-0.7c-12.1-12.4-12.1-32.2,0-44.6L114.8,160L9.4,54.6c-12.2-12.8-11.8-33,0.9-45.2
	c12.4-11.9,31.9-11.9,44.3,0L160,114.8L265.4,9.4c12.7-12.3,32.9-12,45.2,0.7c12.1,12.4,12.1,32.2,0,44.6L205.2,160.1L310.6,265.4z"
	/>
</svg>
