<svg xmlns="http://www.w3.org/2000/svg" viewBox="0 0 867 867"><defs><style>.cls-1{fill:#849690;}.cls-2{fill:#2d4b41;}</style></defs><g id="Layer_2" data-name="Layer 2"><g id="Layer_1-2" data-name="Layer 1"><g id="Layer_1-2-2" data-name="Layer 1-2"><circle class="cls-1" cx="433.5" cy="433.5" r="433.5"/></g><path class="cls-2" d="M695.21,301.63A68.63,68.63,0,0,0,646.92,253c-42.59-11.49-213.37-11.49-213.37-11.49s-170.78,0-213.37,11.49a68.63,68.63,0,0,0-48.29,48.59c-11.41,42.87-11.41,132.31-11.41,132.31s0,89.44,11.41,132.3c6.29,23.65,24.79,41.5,48.29,47.82,42.59,11.49,213.37,11.49,213.37,11.49s170.78,0,213.37-11.49c23.5-6.32,42-24.17,48.29-47.82,11.41-42.86,11.41-132.3,11.41-132.3S706.62,344.5,695.21,301.63ZM377.7,515.14V352.73l142.73,81.21L377.7,515.14Z"/></g></g></svg>